#!OML:ASF H:\Punching\Project 1\Capture day 1\Session 1\female.ASF
:FULLY-SPECIFIED
:DEGREES
1026
root -2.0555 15.8867 -4.73021 15.1939 -5.5637 1.2697
lowerback -3.31042 -1.54726 1.66134
upperback -6.55098 -2.09477 -0.118899
thorax -4.98286 -1.13904 -1.02681
lowerneck -16.8172 6.03867 10.5989
upperneck 34.4272 7.9767 -6.89697
head 15.7444 3.80185 -3.31692
rclavicle -2.31957e-014 9.24349e-015
rhumerus -31.5381 -5.91152 -74.1148
rradius 22.4835
rwrist 16.5628
rhand -12.8303 -7.72954
rfingers 7.12502
rthumb 13.2568 -37.288
lclavicle -2.31957e-014 9.24349e-015
lhumerus -25.5518 -16.9444 97.2099
lradius 50.5597
lwrist -16.8384
lhand -7.72792 9.31453
lfingers 7.12502
lthumb 18.1706 38.4858
rfemur -22.4853 5.80096 22.8908
rtibia 26.1075
rfoot -17.2233 -17.1428
rtoes 8.22123
lfemur -26.7891 -3.58491 -23.1641
ltibia 30.8516
lfoot -21.8545 21.4816
ltoes -1.97323
1027
root -2.05265 15.8819 -4.72893 15.1994 -5.81841 1.23942
lowerback -3.47084 -1.54232 1.76953
upperback -6.56433 -2.09041 -0.0849562
thorax -4.90909 -1.14116 -1.05677
lowerneck -16.7132 6.06578 10.6169
upperneck 34.4835 8.04764 -6.95794
head 15.7611 3.82769 -3.33667
rclavicle -3.4309e-014 -1.08338e-014
rhumerus -31.5648 -5.9204 -73.954
rradius 22.4571
rwrist 16.667
rhand -12.8369 -7.73867
rfingers 7.12502
rthumb 13.2504 -37.2975
lclavicle -3.4309e-014 -1.08338e-014
lhumerus -25.9312 -17.3828 97.5837
lradius 50.8032
lwrist -16.97
lhand -7.83116 9.18185
lfingers 7.12502
lthumb 18.0713 38.3623
rfemur -22.5233 5.90358 22.8742
rtibia 26.1728
rfoot -17.3982 -17.0528
rtoes 8.07912
lfemur -26.5668 -4.02674 -23.1634
ltibia 30.4462
lfoot -22.032 20.7026
ltoes -2.63285
1028
root -2.05071 15.8768 -4.72784 15.2279 -6.02645 1.20544
lowerback -3.64632 -1.54914 1.86499
upperback -6.59351 -2.10204 -0.0415535
thorax -4.84328 -1.15057 -1.06984
lowerneck -16.608 6.08873 10.6329
upperneck 34.5699 8.11061 -7.0071
head 15.7907 3.85177 -3.35353
rclavicle -8.16881e-015 -7.95139e-015
rhumerus -31.6145 -5.93335 -73.7941
rradius 22.4388
rwrist 16.7154
rhand -12.8499 -7.69605
rfingers 7.12502
rthumb 13.2379 -37.2557
lclavicle -8.16881e-015 -7.95139e-015
lhumerus -26.3386 -17.8006 97.9522
lradius 50.9743
lwrist -17.1283
lhand -8.04506 9.04149
lfingers 7.12502
lthumb 17.8655 38.2409
rfemur -22.5809 5.98383 22.8709
rtibia 26.2444
rfoot -17.6146 -16.9696
rtoes 7.90334
lfemur -26.3715 -4.40409 -23.1775
ltibia 30.0381
lfoot -22.1607 19.8591
ltoes -3.30708
1029
root -2.04984 15.8714 -4.72713 15.2784 -6.18691 1.16851
lowerback -3.82809 -1.56972 1.94418
upperback -6.64125 -2.13211 0.0117212
thorax -4.79326 -1.1684 -1.06339
lowerneck -16.5014 6.1079 10.6474
upperneck 34.6869 8.16556 -7.04301
head 15.8334 3.8743 -3.36698
rclavicle 4.1247e-014 1.59028e-014
rhumerus -31.6903 -5.93472 -73.6414
rradius 22.4362
rwrist 16.6789
rhand -12.8627 -7.60638
rfingers 7.12502
rthumb 13.2255 -37.1668
lclavicle 4.1247e-014 1.59028e-014
lhumerus -26.7727 -18.1957 98.3144
lradius 51.0929
lwrist -17.2492
lhand -8.31328 8.9327
lfingers 7.12502
lthumb 17.6074 38.1554
rfemur -22.6603 6.03625 22.8823
rtibia 26.3278
rfoot -17.8711 -16.8876
rtoes 7.67365
lfemur -26.2037 -4.70762 -23.2062
ltibia 29.6283
lfoot -22.2208 18.9479
ltoes -3.97926
1030
root -2.04908 15.8652 -4.72493 15.3223 -6.33737 1.12254
lowerback -4.00986 -1.58917 2.02079
upperback -6.69372 -2.16079 0.0692605
thorax -4.74801 -1.18537 -1.05113
lowerneck -16.3846 6.1216 10.6589
upperneck 34.8226 8.21052 -7.06544
head 15.8808 3.89442 -3.37683
rclavicle -2.13841e-014 2.00773e-014
rhumerus -31.7892 -5.91332 -73.5053
rradius 22.456
rwrist 16.5413
rhand -12.8665 -7.51785
rfingers 7.12502
rthumb 13.2219 -37.0785
lclavicle -2.13841e-014 2.00773e-014
lhumerus -27.2229 -18.537 98.6573
lradius 51.196
lwrist -17.2435
lhand -8.4919 8.86502
lfingers 7.12502
lthumb 17.4355 38.1031
rfemur -22.7303 6.04815 22.9103
rtibia 26.4237
rfoot -18.1674 -16.7604
rtoes 7.37728
lfemur -26.0201 -4.96135 -23.2484
ltibia 29.2167
lfoot -22.209 18.0403
ltoes -4.54132
1031
root -2.04824 15.8586 -4.7211 15.3577 -6.48981 1.06963
lowerback -4.18954 -1.60488 2.09178
upperback -6.75107 -2.18455 0.130521
thorax -4.70865 -1.1996 -1.03186
lowerneck -16.2624 6.13084 10.6712
upperneck 34.9801 8.24708 -7.07907
head 15.9366 3.9126 -3.38549
rclavicle -2.84829e-014 -1.49089e-014
rhumerus -31.9098 -5.86723 -73.3844
rradius 22.4947
rwrist 16.3203
rhand -12.8649 -7.41896
rfingers 7.12502
rthumb 13.2234 -36.9796
lclavicle -2.84829e-014 -1.49089e-014
lhumerus -27.6942 -18.8305 98.9867
lradius 51.2756
lwrist -17.1289
lhand -8.59236 8.83173
lfingers 7.12502
lthumb 17.3388 38.0783
rfemur -22.7882 6.01414 22.9514
rtibia 26.5266
rfoot -18.4942 -16.5704
rtoes 7.02577
lfemur -25.8138 -5.18583 -23.3005
ltibia 28.8019
lfoot -22.1352 17.1689
ltoes -4.78627
1032
root -2.04666 15.8513 -4.71477 15.3712 -6.66479 1.01193
lowerback -4.3691 -1.61046 2.16122
upperback -6.8043 -2.1951 0.191421
thorax -4.66457 -1.20708 -1.01229
lowerneck -16.133 6.13619 10.6844
upperneck 35.1518 8.27692 -7.08692
head 15.9969 3.92913 -3.39378
rclavicle 1.61272e-014 9.74045e-015
rhumerus -32.0476 -5.79478 -73.2803
rradius 22.5552
rwrist 16.0407
rhand -12.8652 -7.30359
rfingers 7.12502
rthumb 13.2232 -36.8642
lclavicle 1.61272e-014 9.74045e-015
lhumerus -28.181 -19.0638 99.2955
lradius 51.3486
lwrist -16.8922
lhand -8.50886 8.8697
lfingers 7.12502
lthumb 17.4192 38.1092
rfemur -22.8148 5.93025 22.9985
rtibia 26.6256
rfoot -18.8379 -16.2956
rtoes 6.63348
lfemur -25.5575 -5.41977 -23.3603
ltibia 28.3838
lfoot -21.9965 16.4056
ltoes -4.53173
1033
root -2.04453 15.8437 -4.70645 15.3668 -6.86312 0.946821
lowerback -4.54708 -1.60551 2.22818
upperback -6.85347 -2.19181 0.253591
thorax -4.61653 -1.20739 -0.990093
lowerneck -15.9942 6.13748 10.6964
upperneck 35.3303 8.30038 -7.0896
head 16.0574 3.94382 -3.40131
rclavicle -3.18195e-014 -4.96962e-015
rhumerus -32.1936 -5.71279 -73.1857
rradius 22.6242
rwrist 15.7448
rhand -12.8698 -7.20301
rfingers 7.12502
rthumb 13.2187 -36.7639
lclavicle -3.18195e-014 -4.96962e-015
lhumerus -28.6809 -19.2344 99.582
lradius 51.4132
lwrist -16.5287
lhand -8.26612 8.93659
lfingers 7.12502
lthumb 17.6528 38.1552
rfemur -22.8119 5.80638 23.054
rtibia 26.712
rfoot -19.1881 -15.9465
rtoes 6.22289
lfemur -25.2602 -5.70124 -23.4077
ltibia 27.9635
lfoot -21.7895 15.862
ltoes -3.67756
1034
root -2.04169 15.8365 -4.69609 15.3437 -7.08934 0.870021
lowerback -4.72441 -1.58842 2.29813
upperback -6.89724 -2.17261 0.318251
thorax -4.56269 -1.1997 -0.967026
lowerneck -15.8482 6.13571 10.7074
upperneck 35.5154 8.3196 -7.08941
head 16.119 3.95722 -3.40869
rclavicle 1.50067e-014 2.14687e-014
rhumerus -32.351 -5.6248 -73.0953
rradius 22.704
rwrist 15.4694
rhand -12.8743 -7.14162
rfingers 7.12502
rthumb 13.2143 -36.7028
lclavicle 1.50067e-014 2.14687e-014
lhumerus -29.1932 -19.3413 99.8463
lradius 51.4503
lwrist -16.0848
lhand -7.87108 9.0249
lfingers 7.12502
lthumb 18.0329 38.2089
rfemur -22.7735 5.65633 23.1183
rtibia 26.7754
rfoot -19.5325 -15.5299
rtoes 5.82507
lfemur -24.9223 -6.07059 -23.4225
ltibia 27.5442
lfoot -21.5312 15.652
ltoes -2.26178
1035
root -2.03902 15.83 -4.68536 15.3184 -7.31754 0.785125
lowerback -4.89582 -1.56878 2.35911
upperback -6.94362 -2.14984 0.38776
thorax -4.51432 -1.18972 -0.933595
lowerneck -15.692 6.13002 10.7189
upperneck 35.6987 8.33253 -7.08658
head 16.1768 3.96869 -3.41641
rclavicle -4.63417e-014 1.78906e-014
rhumerus -32.5159 -5.55669 -73.0005
rradius 22.7796
rwrist 15.2498
rhand -12.8669 -7.11926
rfingers 7.12502
rthumb 13.2215 -36.68
lclavicle -4.63417e-014 1.78906e-014
lhumerus -29.7204 -19.4101 100.092
lradius 51.4453
lwrist -15.6309
lhand -7.44467 9.12241
lfingers 7.12502
lthumb 18.4431 38.2681
rfemur -22.7142 5.48685 23.1935
rtibia 26.8052
rfoot -19.8594 -15.0791
rtoes 5.45055
lfemur -24.5853 -6.52742 -23.3925
ltibia 27.1319
lfoot -21.1883 15.8393
ltoes -0.530735
1036
root -2.03707 15.8249 -4.67554 15.3087 -7.52519 0.693861
lowerback -5.06676 -1.55324 2.40766
upperback -6.99582 -2.13243 0.46126
thorax -4.47196 -1.18182 -0.888913
lowerneck -15.5359 6.12257 10.737
upperneck 35.8772 8.33884 -7.08037
head 16.2317 3.97875 -3.42497
rclavicle -2.52736e-014 1.82882e-014
rhumerus -32.6842 -5.51471 -72.9092
rradius 22.8482
rwrist 15.0801
rhand -12.8712 -7.12771
rfingers 7.12502
rthumb 13.2173 -36.6887
lclavicle -2.52736e-014 1.82882e-014
lhumerus -30.2546 -19.4486 100.311
lradius 51.3977
lwrist -15.1863
lhand -7.00854 9.22856
lfingers 7.12502
lthumb 18.8626 38.334
rfemur -22.6515 5.30277 23.281
rtibia 26.7936
rfoot -20.1585 -14.6177
rtoes 5.13926
lfemur -24.2898 -7.03774 -23.3143
ltibia 26.7344
lfoot -20.7439 16.3649
ltoes 1.31856
1037
root -2.03576 15.8211 -4.66624 15.3109 -7.72107 0.592213
lowerback -5.23343 -1.5393 2.44808
upperback -7.05267 -2.11695 0.538861
thorax -4.43659 -1.17448 -0.835166
lowerneck -15.3821 6.11436 10.7591
upperneck 36.0508 8.33941 -7.06767
head 16.2842 3.98783 -3.4323
rclavicle 3.96265e-014 -1.72943e-014
rhumerus -32.8598 -5.50012 -72.8206
rradius 22.9137
rwrist 14.9511
rhand -12.8733 -7.15916
rfingers 7.12502
rthumb 13.2153 -36.7203
lclavicle 3.96265e-014 -1.72943e-014
lhumerus -30.805 -19.4808 100.514
lradius 51.284
lwrist -14.8362
lhand -6.69655 9.34074
lfingers 7.12502
lthumb 19.1626 38.4167
rfemur -22.581 5.11196 23.383
rtibia 26.7394
rfoot -20.4176 -14.1482
rtoes 4.86926
lfemur -24.041 -7.55061 -23.1945
ltibia 26.3611
lfoot -20.1963 17.1146
ltoes 3.15925
1038
root -2.03434 15.8182 -4.65578 15.2986 -7.93322 0.475825
lowerback -5.387 -1.51494 2.49322
upperback -7.09939 -2.08763 0.614599
thorax -4.39777 -1.16034 -0.785563
lowerneck -15.2332 6.10388 10.7838
upperneck 36.2121 8.33099 -7.04658
head 16.3302 3.99451 -3.43758
rclavicle -5.15598e-015 -1.47101e-014
rhumerus -33.0391 -5.51273 -72.7402
rradius 22.9829
rwrist 14.849
rhand -12.8422 -7.26449
rfingers 7.12502
rthumb 13.2453 -36.8237
lclavicle -5.15598e-015 -1.47101e-014
lhumerus -31.3649 -19.4999 100.695
lradius 51.1109
lwrist -14.5822
lhand -6.51428 9.44689
lfingers 7.12502
lthumb 19.3379 38.5054
rfemur -22.4737 4.92092 23.4974
rtibia 26.6464
rfoot -20.6368 -13.6511
rtoes 4.6502
lfemur -23.8092 -8.01941 -23.0542
ltibia 26.0232
lfoot -19.5535 17.9725
ltoes 4.90534
